<svg width="96" height="96" viewBox="0 0 96 96" fill="none" xmlns="http://www.w3.org/2000/svg">
<rect width="96" height="96" rx="48" fill="#3EBB3E"/>
<path fill-rule="evenodd" clip-rule="evenodd" d="M69.2083 33.0149C69.9677 33.7755 69.9677 35.0087 69.2083 35.7694L42.727 62.2949C42.7236 62.2983 42.7197 62.3023 42.7153 62.3067C42.6688 62.3534 42.5673 62.4555 42.463 62.5443C42.3313 62.6562 42.0739 62.8557 41.6971 62.9783C41.244 63.1258 40.7561 63.1258 40.3031 62.9783C39.9262 62.8557 39.6688 62.6562 39.5372 62.5443C39.4328 62.4555 39.3313 62.3534 39.2848 62.3067C39.2804 62.3023 39.2765 62.2983 39.2731 62.295L28.3473 51.3509C27.588 50.5903 27.588 49.3571 28.3473 48.5965C29.1067 47.8359 30.3379 47.8359 31.0972 48.5965L41.0001 58.5158L66.4585 33.0149C67.2178 32.2543 68.449 32.2543 69.2083 33.0149Z" fill="white"/>
</svg>
