<svg width="96" height="96" viewBox="0 0 96 96" fill="none" xmlns="http://www.w3.org/2000/svg">
<rect width="96" height="96" rx="48" fill="#B93B3B"/>
<path fill-rule="evenodd" clip-rule="evenodd" d="M47.9999 51.2993L61.1996 64.4989C61.6397 64.924 62.2291 65.1592 62.8408 65.1538C63.4526 65.1485 64.0379 64.9031 64.4705 64.4705C64.9031 64.0379 65.1485 63.4527 65.1538 62.8409C65.1591 62.2291 64.9239 61.6397 64.4989 61.1996L51.2992 47.9999L64.4989 34.8003C64.9239 34.3602 65.1591 33.7708 65.1538 33.159C65.1485 32.5472 64.9031 31.962 64.4705 31.5294C64.0379 31.0967 63.4526 30.8514 62.8408 30.846C62.2291 30.8407 61.6397 31.0759 61.1996 31.5009L47.9999 44.7006L34.8002 31.5009C34.3582 31.0864 33.7722 30.8601 33.1663 30.87C32.5604 30.8798 31.982 31.125 31.5537 31.5537C31.1253 31.9823 30.8805 32.5608 30.8711 33.1668C30.8617 33.7727 31.0884 34.3585 31.5032 34.8003L44.7006 47.9999L31.5009 61.1996C31.2781 61.4149 31.1003 61.6723 30.978 61.957C30.8557 62.2417 30.7914 62.5479 30.7887 62.8577C30.786 63.1675 30.845 63.4747 30.9623 63.7615C31.0797 64.0483 31.2529 64.3088 31.472 64.5279C31.6911 64.7469 31.9516 64.9202 32.2384 65.0375C32.5251 65.1548 32.8324 65.2139 33.1422 65.2112C33.452 65.2085 33.7582 65.1441 34.0429 65.0218C34.3275 64.8996 34.585 64.7218 34.8002 64.4989L47.9999 51.2993Z" fill="#F5F5F5"/>
</svg>
